<?xml version="1.0" standalone="no"?>
<!DOCTYPE svg PUBLIC "-//W3C//DTD SVG 20010904//EN"
 "http://www.w3.org/TR/2001/REC-SVG-20010904/DTD/svg10.dtd">
<svg version="1.0" xmlns="http://www.w3.org/2000/svg"
 width="256.000000pt" height="256.000000pt" viewBox="0 0 256.000000 256.000000"
 preserveAspectRatio="xMidYMid meet">
<metadata>
Created by potrace 1.11, written by Peter Selinger 2001-2013
</metadata>
<g transform="translate(0.000000,256.000000) scale(0.100000,-0.100000)"
fill="#000000" stroke="none">
<path d="M1139 2496 c-63 -17 -129 -57 -173 -107 -39 -43 -86 -131 -86 -162 0
-20 -8 -23 -65 -31 -71 -10 -89 -15 -161 -51 -96 -47 -181 -133 -227 -228 -43
-88 -50 -118 -62 -257 -4 -47 -9 -96 -10 -110 -1 -14 -6 -61 -9 -105 -4 -44
-9 -91 -11 -105 -2 -14 -7 -61 -10 -105 -4 -44 -8 -91 -10 -105 -1 -14 -5 -59
-9 -100 -4 -41 -9 -88 -11 -105 -2 -16 -6 -68 -10 -115 -4 -47 -9 -87 -11 -89
-2 -2 -41 -5 -86 -5 -98 -2 -140 -21 -169 -79 -17 -32 -20 -57 -18 -165 1
-154 19 -212 85 -279 70 -71 116 -86 269 -89 108 -2 140 -7 190 -26 l60 -23
655 -3 c667 -3 736 0 803 35 20 10 67 15 150 17 111 2 127 5 177 30 70 35 123
92 148 159 29 77 31 290 3 344 -29 57 -71 77 -163 78 -84 1 -91 5 -94 38 -1
12 -5 63 -8 112 -4 50 -9 110 -11 135 -2 25 -7 77 -10 115 -3 39 -7 91 -9 116
-2 25 -7 83 -11 130 -30 398 -32 420 -57 494 -60 182 -233 323 -417 341 -73 7
-81 10 -81 31 0 34 -51 128 -93 171 -77 79 -169 112 -312 111 -49 0 -111 -6
-136 -13z m292 -111 c61 -31 88 -55 114 -100 52 -88 73 -81 -266 -81 -164 0
-299 1 -299 2 0 0 5 16 12 35 24 71 84 126 166 154 53 19 230 12 273 -10z"/>
</g>
</svg>
